<svg xmlns="http://www.w3.org/2000/svg" viewBox="0 0 891.15 180.46"><defs><style>.cls-1{fill:#fff;}.cls-2{fill:#28728d;}.cls-3{fill:#00a68c;}.cls-4{fill:#2a748c;}.cls-5{fill:#f58b4f;}.cls-6{fill:#bcd64b;}</style></defs><title>Anywhere_hori_white</title><g id="Layer_2" data-name="Layer 2"><g id="Layer_1-2" data-name="Layer 1"><g id="Layer_2-2" data-name="Layer 2"><g id="Layer_1-2-2" data-name="Layer 1-2"><rect class="cls-1" x="0.71" y="0.71" width="179.03" height="179.03" rx="34.84" ry="34.84"/><path class="cls-2" d="M144.9,180.46H35.56A35.6,35.6,0,0,1,0,144.9V35.56A35.6,35.6,0,0,1,35.56,0H144.9a35.6,35.6,0,0,1,35.56,35.56V144.9A35.6,35.6,0,0,1,144.9,180.46ZM35.56,1.43A34.17,34.17,0,0,0,1.43,35.56V144.9A34.17,34.17,0,0,0,35.56,179H144.9A34.17,34.17,0,0,0,179,144.9V35.56A34.17,34.17,0,0,0,144.9,1.43Z"/><path class="cls-3" d="M74.48,11.56A47.54,47.54,0,0,0,26.94,59.1h0c0,26.26,47.54,85.05,47.54,85.05S122,85.36,122,59.11A47.54,47.54,0,0,0,74.48,11.56Zm0,73.28A24.43,24.43,0,1,1,98.91,60.41h0A24.43,24.43,0,0,1,74.48,84.84Z"/><circle class="cls-4" cx="119.06" cy="113.98" r="34.98"/><path class="cls-1" d="M119.06,150.71A36.73,36.73,0,1,1,155.79,114v0A36.77,36.77,0,0,1,119.06,150.71Zm0-70A33.23,33.23,0,1,0,152.3,114a33.23,33.23,0,0,0-33.24-33.29Z"/><polygon class="cls-1" points="136.96 108.14 124.9 108.14 124.9 96.09 113.22 96.09 113.22 108.14 101.17 108.14 101.17 119.82 113.22 119.82 113.22 131.88 124.9 131.88 124.9 119.82 136.96 119.82 136.96 108.14"/><path class="cls-5" d="M4.66,162.53a35,35,0,0,0,30.57,17.93h.53l12.55-17.93Z"/><polygon class="cls-6" points="48.32 162.53 35.76 180.46 80.75 180.46 93.31 162.53 48.32 162.53"/><polygon class="cls-3" points="93.31 162.53 80.75 180.46 125.75 180.46 138.3 162.53 93.31 162.53"/><path class="cls-4" d="M175.73,162.53H138.3l-12.55,17.93h19.41A35,35,0,0,0,175.73,162.53Z"/><path class="cls-1" d="M225.3,56.3V21.4h15c5.86,0,9.45,3.66,9.45,8.89a7.88,7.88,0,0,1-5.91,8c3.59.57,6.57,4.4,6.57,8.58,0,5.6-3.59,9.42-9.75,9.42Zm20.1-25.38c0-3.14-2-5.65-5.81-5.65h-10.1V36.52h10.1c3.79,0,5.81-2.4,5.81-5.6m.65,15.49a5.8,5.8,0,0,0-6.21-6H229.49v12h10.35c3.89,0,6.21-2.31,6.21-6"/><path class="cls-1" d="M255.71,38.85c0-10,6.77-17.45,16.72-17.45s16.77,7.49,16.77,17.45S282.38,56.3,272.43,56.3s-16.72-7.49-16.72-17.45m29.14,0c0-7.89-4.9-13.71-12.42-13.71S260.06,31,260.06,38.85s4.8,13.71,12.38,13.71,12.42-5.87,12.42-13.71"/><path class="cls-1" d="M295.73,42.37v-21H300v20.9c0,6.27,3.28,10.23,9.5,10.23s9.55-4,9.55-10.23V21.4h4.24V42.32c0,8.53-4.64,14-13.79,14s-13.74-5.5-13.74-13.93"/><polygon class="cls-1" points="354.98 56.3 335.33 28.46 335.33 56.3 331.14 56.3 331.14 21.4 335.43 21.4 354.83 48.66 354.83 21.4 359.02 21.4 359.02 56.3 354.98 56.3"/><path class="cls-1" d="M366.91,56.3V21.4h11.52c10.5,0,17.27,7.59,17.27,17.48S388.93,56.3,378.43,56.3Zm24.45-17.43c0-7.53-4.6-13.6-12.93-13.6H371.1V52.43h7.33c8.18,0,12.93-6.07,12.93-13.56"/><polygon class="cls-1" points="401.72 56.3 401.72 21.4 405.91 21.4 405.91 52.43 421.57 52.43 421.57 56.3 401.72 56.3"/><polygon class="cls-1" points="427.18 56.3 427.18 21.4 449.25 21.4 449.25 25.27 431.37 25.27 431.37 36.52 448.9 36.52 448.9 40.39 431.37 40.39 431.37 52.43 449.25 52.43 449.25 56.3 427.18 56.3"/><path class="cls-1" d="M453.9,50.94l2.53-3.24A13.9,13.9,0,0,0,467,52.56c6,0,7.93-3.24,7.93-5.87,0-8.7-20-3.84-20-15.88,0-5.56,5-9.41,11.61-9.41a15.83,15.83,0,0,1,11.92,4.75L476,29.24a12.7,12.7,0,0,0-9.75-4c-4,0-6.92,2.18-6.92,5.36,0,7.59,20,3.24,20,15.83,0,4.86-3.33,9.91-12.43,9.91-5.81,0-10.15-2.22-12.93-5.36"/><path class="cls-1" d="M483.51,50.94,486,47.7a13.9,13.9,0,0,0,10.56,4.86c6,0,7.93-3.24,7.93-5.87,0-8.7-20-3.84-20-15.88,0-5.56,5-9.41,11.61-9.41a15.84,15.84,0,0,1,11.92,4.75l-2.53,3.09a12.7,12.7,0,0,0-9.75-4c-4,0-6.92,2.18-6.92,5.36,0,7.59,20,3.24,20,15.83,0,4.86-3.34,9.91-12.43,9.91-5.81,0-10.15-2.22-12.93-5.36"/><path class="cls-1" d="M275.82,141.28h-40.6l-7.09,17.78H217.08l32.19-80.11h12.37L294,159.06H282.9Zm-37.71-8.89h34.71l-17.3-44.56Z"/><path class="cls-1" d="M314.38,94.44v64.62h-10V78.95h10.21l46.12,63.3V78.95h10v80.11H361.1Z"/><path class="cls-1" d="M412.76,125.19,381.17,78.95h11.65l24.86,37.23,24.86-37.23h11.65l-31.47,46.24v33.87h-10Z"/><path class="cls-1" d="M508.25,94.44l-17.66,64.62H479.78L457,78.95h11l17.78,66.78,18.38-66.78h8.29l18.38,66.78,17.66-66.78h11l-22.82,80.11H525.91Z"/><path class="cls-1" d="M627.53,122.31H580.69v36.75h-10V78.95h10v34.47h46.84V78.95h10v80.11h-10Z"/><path class="cls-1" d="M656.24,78.95h52.49v8.89H666.21v25.82h41.68v8.89H666.21v27.62h42.52v8.89H656.24Z"/><path class="cls-1" d="M750.53,127.23h-16v31.83h-10V78.95h32.19c14.65,0,25.1,9.37,25.1,24.14,0,14.41-9.85,22.34-20.78,23.3l21.62,32.67H771Zm5-39.39h-21v30.63h21c9.49,0,16-6.37,16-15.37s-6.46-15.27-16-15.27Z"/><path class="cls-1" d="M797.62,78.95h52.49v8.89H807.59v25.82h41.68v8.89H807.59v27.62h42.52v8.89H797.62Z"/><path class="cls-1" d="M869.43,94h-2V80.4h-4.34V78.58h10.63V80.4h-4.33Zm19.86-12.73L884,94h-.56l-5.25-12.73V94h-2V78.58h3l4.48,11.19,4.48-11.19h3V94h-2Z"/></g></g></g></g></svg>