<svg xmlns="http://www.w3.org/2000/svg" viewBox="0 0 314.14 74.92"><defs><style>.cls-1{fill:#fff;}</style></defs><title>WhiteBoundlessOffineTileServer</title><g id="Layer_2" data-name="Layer 2"><g id="Layer_1-2" data-name="Layer 1"><polygon class="cls-1" points="26.5 57.02 0 42.16 0 51.7 26.5 67.49 26.5 57.02"/><polygon class="cls-1" points="27.55 50.65 5.87 38.49 1.29 40.5 27.55 55.23 52.42 41.93 48.38 39.51 27.55 50.65"/><polygon class="cls-1" points="28.58 57.04 28.58 67.55 53.48 53.69 53.48 43.71 28.58 57.04"/><polygon class="cls-1" points="39.96 13.73 39.91 13.64 39.91 13.76 39.96 13.73"/><polygon class="cls-1" points="36.78 13.15 26.94 7.55 17.43 12.81 27.26 18.56 36.78 13.15"/><polygon class="cls-1" points="16.37 14.6 16.37 17.02 25.26 22.22 25.26 23.46 26.21 22.93 26.21 20.36 16.37 14.6"/><polygon class="cls-1" points="29.2 21.91 37.83 17 37.83 14.94 28.29 20.37 28.29 23.3 29.2 23.82 29.2 21.91"/><polygon class="cls-1" points="28.29 33.12 28.29 33.05 28.17 33.12 28.29 33.12"/><polygon class="cls-1" points="26.21 33.12 26.33 33.12 26.21 33.05 26.21 33.12"/><polygon class="cls-1" points="0.24 22.53 0.24 32.98 10.08 38.59 10.08 28.29 0.24 22.53"/><polygon class="cls-1" points="14.67 29.68 21.7 25.68 21.7 22.88 12.16 28.3 12.16 38.61 14.67 37.22 14.67 29.68"/><polygon class="cls-1" points="23.83 21.67 23.78 21.58 23.78 21.7 23.83 21.67"/><polygon class="cls-1" points="20.65 21.08 10.8 15.48 1.3 20.74 11.13 26.5 20.65 21.08"/><polygon class="cls-1" points="12.16 41.05 12.16 40.98 12.04 41.05 12.16 41.05"/><polygon class="cls-1" points="10.08 41.05 10.2 41.05 10.08 40.98 10.08 41.05"/><polygon class="cls-1" points="32.28 22.53 32.28 25.43 39.91 29.89 39.91 37.33 42.12 38.59 42.12 28.29 32.28 22.53"/><polygon class="cls-1" points="44.2 38.61 53.73 33.33 53.73 22.88 44.2 28.3 44.2 38.61"/><polygon class="cls-1" points="55.86 21.67 55.81 21.58 55.81 21.7 55.86 21.67"/><polygon class="cls-1" points="52.69 21.08 42.84 15.48 33.34 20.74 43.16 26.5 52.69 21.08"/><polygon class="cls-1" points="44.2 41.05 44.2 40.98 44.07 41.05 44.2 41.05"/><polygon class="cls-1" points="42.12 41.05 42.24 41.05 42.12 40.98 42.12 41.05"/><polygon class="cls-1" points="16.37 31.52 16.37 41.96 26.21 47.58 26.21 37.28 16.37 31.52"/><polygon class="cls-1" points="28.29 47.59 37.83 42.31 37.83 31.86 28.29 37.28 28.29 47.59"/><polygon class="cls-1" points="39.96 30.65 39.91 30.56 39.91 30.68 39.96 30.65"/><polygon class="cls-1" points="36.78 30.07 26.94 24.46 17.43 29.73 27.26 35.48 36.78 30.07"/><polygon class="cls-1" points="28.29 50.04 28.29 49.97 28.17 50.04 28.29 50.04"/><polygon class="cls-1" points="26.21 50.04 26.33 50.04 26.21 49.97 26.21 50.04"/><path class="cls-1" d="M69.5,11.91V0h5.12a3,3,0,0,1,3.23,3,2.69,2.69,0,0,1-2,2.73A2.94,2.94,0,0,1,78.07,8.7a3,3,0,0,1-3.32,3.21Zm6.87-8.66a1.84,1.84,0,0,0-2-1.93H70.94V5.16h3.44a1.82,1.82,0,0,0,2-1.91m.22,5.29a2,2,0,0,0-2.12-2.06H70.94v4.11h3.53a1.93,1.93,0,0,0,2.12-2.05"/><path class="cls-1" d="M79.89,6A5.72,5.72,0,1,1,91.32,6,5.72,5.72,0,1,1,79.89,6m9.94,0c0-2.7-1.67-4.68-4.24-4.68s-4.22,2-4.22,4.68,1.64,4.68,4.22,4.68,4.24-2,4.24-4.68"/><path class="cls-1" d="M93.54,7.16V0H95V7.12c0,2.14,1.12,3.49,3.24,3.49s3.26-1.35,3.26-3.49V0h1.45V7.14c0,2.91-1.59,4.77-4.71,4.77S93.54,10,93.54,7.16"/><polygon class="cls-1" points="113.77 11.91 107.06 2.41 107.06 11.91 105.63 11.91 105.63 0 107.09 0 113.72 9.3 113.72 0 115.15 0 115.15 11.91 113.77 11.91"/><path class="cls-1" d="M117.84,11.91V0h3.93a5.68,5.68,0,0,1,5.89,6,5.66,5.66,0,0,1-5.89,6ZM126.18,6c0-2.57-1.57-4.64-4.41-4.64h-2.5v9.27h2.5A4.31,4.31,0,0,0,126.18,6"/><polygon class="cls-1" points="129.72 11.91 129.72 0 131.15 0 131.15 10.59 136.49 10.59 136.49 11.91 129.72 11.91"/><polygon class="cls-1" points="138.41 11.91 138.41 0 145.94 0 145.94 1.32 139.84 1.32 139.84 5.16 145.82 5.16 145.82 6.48 139.84 6.48 139.84 10.59 145.94 10.59 145.94 11.91 138.41 11.91"/><path class="cls-1" d="M147.53,10.08l.86-1.1A4.77,4.77,0,0,0,152,10.64c2.05,0,2.7-1.11,2.7-2,0-3-6.81-1.31-6.81-5.42,0-1.9,1.69-3.21,4-3.21a5.41,5.41,0,0,1,4.07,1.62l-.87,1.06a4.3,4.3,0,0,0-3.32-1.38c-1.36,0-2.36.74-2.36,1.83,0,2.59,6.81,1.1,6.81,5.4,0,1.66-1.14,3.38-4.25,3.38a5.72,5.72,0,0,1-4.41-1.83"/><path class="cls-1" d="M157.64,10.08,158.5,9a4.74,4.74,0,0,0,3.6,1.66c2.05,0,2.71-1.11,2.71-2,0-3-6.81-1.31-6.81-5.42,0-1.9,1.69-3.21,4-3.21A5.39,5.39,0,0,1,166,1.62l-.86,1.06a4.32,4.32,0,0,0-3.33-1.38c-1.36,0-2.36.74-2.36,1.83,0,2.59,6.81,1.1,6.81,5.4,0,1.66-1.14,3.38-4.24,3.38a5.7,5.7,0,0,1-4.41-1.83"/><path class="cls-1" d="M82,15.43c8.08,0,13.57,6.07,13.57,14.15S90.07,43.72,82,43.72,68.42,37.65,68.42,29.58,73.87,15.43,82,15.43Zm0,3c-6.15,0-10,4.71-10,11.11s3.89,11.11,10,11.11S92,35.93,92,29.58,88.1,18.47,82,18.47Z"/><path class="cls-1" d="M100.89,15.88h17.92v3H104.3v8.81h14.22v3H104.3V43.23h-3.41Z"/><path class="cls-1" d="M123.44,15.88h17.92v3H126.85v8.81h14.22v3H126.85V43.23h-3.41Z"/><path class="cls-1" d="M146,15.88h3.41V40.2h12.71v3H146Z"/><path class="cls-1" d="M166.9,15.88h3.41V43.23H166.9Z"/><path class="cls-1" d="M180.1,21.17V43.23h-3.4V15.88h3.49l15.74,21.61V15.88h3.4V43.23h-3.28Z"/><path class="cls-1" d="M205.73,15.88h17.91v3H209.13v8.81h14.23v3H209.13V40.2h14.51v3H205.73Z"/><path class="cls-1" d="M76.29,50.12H67.64v-3H88.39v3H79.7V74.43H76.29Z"/><path class="cls-1" d="M92.9,47.08h3.4V74.43H92.9Z"/><path class="cls-1" d="M102.7,47.08h3.4V71.4h12.71v3H102.7Z"/><path class="cls-1" d="M123.61,47.08h17.91v3H127v8.81h14.23v3H127V71.4h14.51v3H123.61Z"/><path class="cls-1" d="M157.88,68a11.58,11.58,0,0,0,8.61,3.9c4.88,0,6.44-2.63,6.44-4.72,0-3.28-3.32-4.18-6.93-5.16-4.39-1.15-9.27-2.38-9.27-7.75,0-4.51,4-7.59,9.39-7.59a12.86,12.86,0,0,1,9.72,3.82L173.79,53a10.44,10.44,0,0,0-7.91-3.28c-3.28,0-5.62,1.76-5.62,4.34,0,2.75,3.16,3.57,6.64,4.51,4.47,1.19,9.56,2.59,9.56,8.33,0,4-2.71,8-10.09,8a13.56,13.56,0,0,1-10.5-4.34Z"/><path class="cls-1" d="M181.54,47.08h17.92v3H184.94v8.81h14.23v3H184.94V71.4h14.52v3H181.54Z"/><path class="cls-1" d="M213.72,63.57h-5.45V74.43h-3.4V47.08h11c5,0,8.56,3.2,8.56,8.24a7.56,7.56,0,0,1-7.09,8l7.38,11.15h-4Zm1.73-13.45h-7.18V60.57h7.18a5.23,5.23,0,1,0,0-10.45Z"/><path class="cls-1" d="M226.56,47.08h3.89l9.23,23.62,9.22-23.62h3.9l-11,27.35h-4.23Z"/><path class="cls-1" d="M256.36,47.08h17.92v3H259.77v8.81H274v3H259.77V71.4h14.51v3H256.36Z"/><path class="cls-1" d="M288.55,63.57h-5.46V74.43h-3.4V47.08h11c5,0,8.57,3.2,8.57,8.24a7.56,7.56,0,0,1-7.1,8l7.38,11.15h-4Zm1.72-13.45h-7.18V60.57h7.18a5.11,5.11,0,0,0,5.45-5.25C295.72,52.25,293.51,50.12,290.27,50.12Z"/><path class="cls-1" d="M307,52.16h-.64V47.7H304.9v-.6h3.49v.6H307ZM313.5,48l-1.72,4.19h-.19L309.87,48v4.19h-.65V47.1h1l1.47,3.68,1.48-3.68h1v5.06h-.64Z"/></g></g></svg>