<svg xmlns="http://www.w3.org/2000/svg" viewBox="0 0 30.9 30.91"><defs><style>.cls-1{fill:#2b728e;}.cls-2{fill:#f58a4f;}.cls-3{fill:#facc34;}.cls-4{fill:#f58c50;}.cls-5{fill:#00a58b;}.cls-6{fill:#bad548;}.cls-7{fill:#00a68c;}</style></defs><title>boundlessicon</title><g id="Layer_2" data-name="Layer 2"><g id="Layer_1-2" data-name="Layer 1"><g id="Layer_2-2" data-name="Layer 2"><g id="Layer_1-2-2" data-name="Layer 1-2"><path class="cls-1" d="M12.06,13.74a3.88,3.88,0,1,0,5.26-1.56,3.89,3.89,0,0,0-5.26,1.56h0"/><path class="cls-2" d="M29.73,12.13,29.62,12l.1.12Z"/><path class="cls-3" d="M15.44,5.33A7,7,0,0,0,9.27,4l-.13,0,2.42-2.4.18-.17v0L2.1,11.13l0,.07L2,11.36a5.32,5.32,0,0,0-.82,7.41l.12.15c.13.15.27.3.41.44l2.4,2.41s0,0,0-.06a6.92,6.92,0,0,1,1.27-6.23h0L15.48,5.36Z"/><path class="cls-4" d="M9.14,4.07l.13,0a7,7,0,0,1,6.17,1.29l0,0,9,9c1.49-2.24,1.07-5.24.66-6.87L19.56,2a5.31,5.31,0,0,0-7.48-.76,3.17,3.17,0,0,0-.34.3l-.18.17Z"/><path class="cls-5" d="M1.13,18.78l.13.14-.12-.15Z"/><path class="cls-6" d="M29.72,12.14l-.1-.12a3.88,3.88,0,0,0-.39-.42l-2.4-2.42s0,0,0,.06a6.94,6.94,0,0,1-1.27,6.24h0L15.42,25.59a7,7,0,0,0,6.28,1.26L29,19.6a5.32,5.32,0,0,0,.77-7.46"/><path class="cls-7" d="M15.42,25.57h0l-8.92-9c-1.5,2.17-1.15,5.1-.76,6.79L11.3,29a5.4,5.4,0,0,0,8,.29l.76-.76,1.66-1.65h0a6.85,6.85,0,0,1-6.27-1.26"/></g></g></g></g></svg>